<?xml version="1.0" encoding="UTF-8"?>
<svg version="1.1" xmlns="http://www.w3.org/2000/svg" width="416" height="662">
<path d="M0 0 C3.54903228 2.42507978 6.75472516 5.18777631 10 8 C10.87011719 8.6909375 11.74023438 9.381875 12.63671875 10.09375 C15.2816989 12.22722159 17.59892468 14.59892468 20 17 C20.66 17.33 21.32 17.66 22 18 C22 18.66 22 19.32 22 20 C22.66 20 23.32 20 24 20 C24 20.66 24 21.32 24 22 C24.556875 22.226875 25.11375 22.45375 25.6875 22.6875 C28.64920914 24.36847005 30.61864024 26.5662643 33 29 C33.81339844 29.80179688 34.62679687 30.60359375 35.46484375 31.4296875 C40.20362758 36.11606772 44.85994807 40.77046071 49 46 C49 46.66 49 47.32 49 48 C49.99 48.33 50.98 48.66 52 49 C54.015625 51.1875 54.015625 51.1875 56.25 54 C57.03761719 54.98871094 57.82523437 55.97742187 58.63671875 56.99609375 C59.41660156 57.98738281 60.19648438 58.97867188 61 60 C62.06154297 61.31677734 62.06154297 61.31677734 63.14453125 62.66015625 C68 68.74185336 68 68.74185336 68 71 C68.99 71.33 69.98 71.66 71 72 C72.54296875 73.8984375 72.54296875 73.8984375 74.1875 76.375 C76.77728017 80.21028886 79.43131698 83.9697382 82.1875 87.6875 C85.10654346 91.68079645 87.62236418 95.66930619 90 100 C91.11375 101.60875 91.11375 101.60875 92.25 103.25 C94 106 94 106 94 109 C94.66 109 95.32 109 96 109 C100.67068005 117.63859574 105.24385353 126.30550627 109.4375 135.1875 C109.9315332 136.22765259 109.9315332 136.22765259 110.43554688 137.28881836 C112.23132153 141.13576882 113.70933244 144.94859952 115 149 C115.57514151 150.61825096 116.15364564 152.23530839 116.734375 153.8515625 C124.42019968 175.65896707 129.12647433 197.907129 131.65454102 220.87719727 C131.92010875 223.27781699 132.19803778 225.67578773 132.48413086 228.07397461 C133.70865848 238.47792301 134.53853875 248.85118822 135.0625 259.3125 C135.10391113 260.0967334 135.14532227 260.8809668 135.18798828 261.68896484 C135.7225083 271.87736346 136.07887005 282.06120868 136.27734375 292.26171875 C136.29740982 293.28340652 136.31747589 294.3050943 136.33815002 295.35774231 C136.43281912 300.37162352 136.51181041 305.38522911 136.57055664 310.3996582 C136.59904464 312.23518999 136.62760548 314.07072065 136.65625 315.90625 C136.6614415 316.73899948 136.666633 317.57174896 136.67198181 318.42973328 C136.7666148 323.89200885 137.00053153 328.89614161 140.9453125 333.046875 C141.66460937 333.60890625 142.38390625 334.1709375 143.125 334.75 C144.44781526 335.79507113 145.74838275 336.87063374 147 338 C147 338.66 147 339.32 147 340 C148.32 340.33 149.64 340.66 151 341 C151 341.66 151 342.32 151 343 C152.0828125 343.3403125 152.0828125 343.3403125 153.1875 343.6875 C158.69119721 346.25589203 162.27174464 351.39336165 166.15625 355.9375 C167.53598651 357.48093406 168.97989619 358.96741344 170.453125 360.421875 C195.2004765 385.47287498 202.1919332 422.07692292 202 456 C201.84662507 474.58027715 201.43215545 493.14589826 199.26611328 511.61425781 C198.97348648 514.23769732 198.73089553 516.86295898 198.49609375 519.4921875 C198.41286865 520.40411865 198.32964355 521.3160498 198.24389648 522.25561523 C198.08695703 523.98132084 197.93381681 525.70737839 197.78540039 527.43383789 C197.36169243 531.88857247 196.62306748 535.78678734 195 540 C194.34 540 193.68 540 193 540 C193 540.66 193 541.32 193 542 C186.73684211 543.35087719 186.73684211 543.35087719 183.375 541.75 C182.59125 541.1725 181.8075 540.595 181 540 C180.071875 539.484375 179.14375 538.96875 178.1875 538.4375 C177.1046875 537.7259375 177.1046875 537.7259375 176 537 C176 536.34 176 535.68 176 535 C174.68 534.67 173.36 534.34 172 534 C172 533.34 172 532.68 172 532 C171.40687012 531.72526855 170.81374023 531.45053711 170.20263672 531.16748047 C168.09585802 530.05080836 166.53623332 528.89442955 164.7578125 527.3203125 C164.16613281 526.80339844 163.57445312 526.28648437 162.96484375 525.75390625 C162.35769531 525.21636719 161.75054687 524.67882812 161.125 524.125 C156.06048477 519.64697878 156.06048477 519.64697878 150.5546875 515.7421875 C149.71164062 515.16726563 148.86859375 514.59234375 148 514 C148 513.34 148 512.68 148 512 C147.27425781 511.7525 146.54851562 511.505 145.80078125 511.25 C142.72154736 509.87572546 140.68533961 508.25344071 138.1875 506 C137.39730469 505.29875 136.60710937 504.5975 135.79296875 503.875 C134 502 134 502 134 500 C133.2575 499.7525 132.515 499.505 131.75 499.25 C128.76976913 497.89534961 127.10080748 496.4898459 125 494 C125 493.34 125 492.68 125 492 C124.38125 491.9175 123.7625 491.835 123.125 491.75 C120.33061257 490.76374561 120.283048 489.56609601 119 487 C117.67405895 486.63837971 116.34061543 486.30271961 115 486 C114.67 485.01 114.34 484.02 114 483 C113.195625 482.690625 112.39125 482.38125 111.5625 482.0625 C108.47312011 480.78153761 108.39445108 479.88186557 107 477 C104.94999129 476.19471111 104.94999129 476.19471111 103 476 C103 475.34 103 474.68 103 474 C102.01 473.67 101.02 473.34 100 473 C100 472.34 100 471.68 100 471 C99.01 470.67 98.02 470.34 97 470 C96.34 469.01 95.68 468.02 95 467 C94.01 466.67 93.02 466.34 92 466 C90.66666667 464.66666667 89.33333333 463.33333333 88 462 C84.40916813 459.60977871 80.85083674 459.71643862 76.6811676 459.73930359 C75.94215475 459.73547804 75.20314191 459.73165249 74.44173473 459.72771102 C71.96442081 459.71738887 69.48733899 459.72137164 67.01000977 459.7253418 C65.23430161 459.72099489 63.45859533 459.71581182 61.68289185 459.70985413 C56.85854559 459.69645075 52.03427761 459.69588693 47.20991635 459.69841743 C43.18394874 459.6994862 39.15799702 459.69460618 35.13203281 459.689812 C25.63512895 459.67871225 16.13826464 459.67828209 6.64135742 459.68432617 C-3.15959694 459.69036779 -12.96040782 459.67805124 -22.7613377 459.6567561 C-31.17332578 459.63915011 -39.58526815 459.63313715 -47.99727398 459.63639385 C-53.02260524 459.6382084 -58.04783413 459.63555334 -63.07314873 459.62167931 C-67.7984996 459.60912184 -72.52362649 459.61102532 -77.24897385 459.62409019 C-78.98360201 459.62646005 -80.71824585 459.62370669 -82.45285606 459.61546707 C-84.82022653 459.60503229 -87.18684088 459.61307346 -89.55418396 459.6257782 C-90.24115292 459.61840391 -90.92812187 459.61102963 -91.63590807 459.60343188 C-95.95964093 459.652272 -98.45703438 460.5775634 -102 463 C-102.66 463 -103.32 463 -104 463 C-104.226875 463.5775 -104.45375 464.155 -104.6875 464.75 C-106.34761639 467.59591381 -108.39187957 468.99841921 -111 471 C-111.78375 471.78375 -112.5675 472.5675 -113.375 473.375 C-122.26086957 482.26086957 -122.26086957 482.26086957 -128 484 C-128 484.66 -128 485.32 -128 486 C-129.64351457 487.36176922 -131.31522656 488.68962066 -133 490 C-133.845625 490.886875 -134.69125 491.77375 -135.5625 492.6875 C-138.03606085 495.03421158 -138.88402906 495.24786908 -142 496 C-143.28436734 497.9837767 -143.28436734 497.9837767 -144 500 C-144.66 500 -145.32 500 -146 500 C-146.33 500.99 -146.66 501.98 -147 503 C-148.88353912 504.54729462 -150.8315451 506.01705713 -152.8125 507.4375 C-156.50970033 510.09894384 -159.84763869 512.71378046 -163 516 C-164.1944148 517.09866002 -165.40200475 518.18324643 -166.625 519.25 C-167.21539062 519.77078125 -167.80578125 520.2915625 -168.4140625 520.828125 C-170 522 -170 522 -172 522 C-172.23332031 522.58007812 -172.46664062 523.16015625 -172.70703125 523.7578125 C-174.3073869 526.5330516 -176.14427165 527.9354476 -178.6875 529.875 C-182.40729131 532.74670036 -185.97550713 535.68595758 -189.4296875 538.87109375 C-191.24901235 540.17901634 -192.81361643 540.58827842 -195 541 C-195 541.66 -195 542.32 -195 543 C-198.69650201 543.96813148 -200.61363154 544.14117309 -204.25 542.8125 C-207.91094339 540.39960549 -208.68454569 538.46785198 -209.59545898 534.22924805 C-210.73980611 526.43357177 -211.55684252 518.67506388 -212.0625 510.8125 C-212.14411377 509.5551001 -212.22572754 508.2977002 -212.30981445 507.00219727 C-217.53510616 422.17203538 -217.53510616 422.17203538 -199 386 C-198.34 386 -197.68 386 -197 386 C-196.731875 385.0925 -196.46375 384.185 -196.1875 383.25 C-195.09506576 380.26017997 -193.99240043 378.42553096 -192 376 C-191.67 375.34 -191.34 374.68 -191 374 C-190.34 374 -189.68 374 -189 374 C-188.88398438 373.17822266 -188.88398438 373.17822266 -188.765625 372.33984375 C-187.71956753 369.14296404 -185.90505536 367.13500814 -183.75 364.5625 C-182.98171875 363.63566406 -182.2134375 362.70882813 -181.421875 361.75390625 C-179.04587241 359.05216137 -176.56881008 356.51777412 -174 354 C-173.175 353.154375 -172.35 352.30875 -171.5 351.4375 C-169.10888779 349.10616559 -166.61179497 347.07604215 -164 345 C-163.278125 344.2575 -162.55625 343.515 -161.8125 342.75 C-160 341 -160 341 -158 341 C-157.75378906 340.39800781 -157.50757813 339.79601562 -157.25390625 339.17578125 C-155.7910373 336.6374074 -154.36437842 335.78633279 -151.9375 334.1875 C-149.12330686 331.78551237 -148.11385948 330.48166734 -147.25390625 326.84375 C-146.97896938 322.88465902 -146.93424516 318.96446886 -147 315 C-147.00261804 313.58724201 -147.00259043 312.17447679 -147 310.76171875 C-146.99801365 308.55066765 -147.00027283 306.3401424 -147.01757812 304.12915039 C-147.05831452 297.27306921 -146.74828505 290.45069597 -146.35546875 283.60693359 C-146.10761773 279.12171533 -145.98863987 274.67228619 -146.02734375 270.1796875 C-146.05511857 263.75136054 -145.59860546 257.40284818 -145.0625 251 C-144.97548828 249.91460937 -144.88847656 248.82921875 -144.79882812 247.7109375 C-144.6247024 245.54919884 -144.44719646 243.38772947 -144.26611328 241.2265625 C-144.0836094 239.01374479 -143.91059322 236.80013011 -143.74560547 234.5859375 C-143.62209717 232.96558594 -143.62209717 232.96558594 -143.49609375 231.3125 C-143.42447021 230.33925781 -143.35284668 229.36601562 -143.27905273 228.36328125 C-143 226 -143 226 -142 224 C-141.84013018 222.31544579 -141.72259405 220.62680656 -141.625 218.9375 C-141.0117717 210.84872669 -139.50630584 202.95983322 -138 195 C-137.835 194.09378906 -137.67 193.18757812 -137.5 192.25390625 C-135.59500295 182.16762722 -133.20427696 171.99204892 -129.79296875 162.3046875 C-128.05381806 157.25001309 -126.55687929 152.11320254 -125 147 C-124.34 147 -123.68 147 -123 147 C-122.896875 145.989375 -122.79375 144.97875 -122.6875 143.9375 C-121.96295233 139.78781792 -120.77730734 136.78643737 -119 133 C-118.34 133 -117.68 133 -117 133 C-116.87109375 132.42507812 -116.7421875 131.85015625 -116.609375 131.2578125 C-114.60186862 123.81974398 -110.47985839 116.83136134 -107 110 C-106.34 110 -105.68 110 -105 110 C-104.896875 109.2575 -104.79375 108.515 -104.6875 107.75 C-103.93573472 104.7429389 -102.88883687 103.41753044 -101 101 C-100.05203875 99.61125005 -99.11488503 98.21507405 -98.1875 96.8125 C-97.67058594 96.03648438 -97.15367188 95.26046875 -96.62109375 94.4609375 C-95.51804339 92.78642731 -94.42731867 91.10374695 -93.34765625 89.4140625 C-92.82042969 88.59679687 -92.29320313 87.77953125 -91.75 86.9375 C-91.27046875 86.18339844 -90.7909375 85.42929688 -90.296875 84.65234375 C-89.86890625 84.10707031 -89.4409375 83.56179687 -89 83 C-88.34 83 -87.68 83 -87 83 C-87 81.68 -87 80.36 -87 79 C-85.67732273 77.98594743 -84.34275169 76.98731742 -83 76 C-81.73152315 73.41501488 -81.73152315 73.41501488 -81 71 C-80.34 71 -79.68 71 -79 71 C-78.7421875 70.42765625 -78.484375 69.8553125 -78.21875 69.265625 C-76.88634058 66.78871005 -75.34943882 64.8658834 -73.5 62.75 C-72.8915625 62.04359375 -72.283125 61.3371875 -71.65625 60.609375 C-70 59 -70 59 -68 59 C-67.91105469 58.44183594 -67.82210937 57.88367187 -67.73046875 57.30859375 C-65.89859154 51.51907806 -60.57787884 46.0548439 -55.875 42.3125 C-52.94574437 39.9563596 -50.80068978 37.49183924 -48.4921875 34.55078125 C-46.81253207 32.80517076 -45.16091824 32.05378111 -43 31 C-41.73195434 28.9664052 -41.73195434 28.9664052 -41 27 C-40.34 27 -39.68 27 -39 27 C-39 26.34 -39 25.68 -39 25 C-38.01 25 -37.02 25 -36 25 C-35.731875 24.195625 -35.46375 23.39125 -35.1875 22.5625 C-34.5996875 21.2940625 -34.5996875 21.2940625 -34 20 C-33.01 19.67 -32.02 19.34 -31 19 C-30.67 18.01 -30.34 17.02 -30 16 C-25.54285714 12 -25.54285714 12 -23 12 C-23 11.34 -23 10.68 -23 10 C-21.7934375 9.5978125 -21.7934375 9.5978125 -20.5625 9.1875 C-19.716875 8.795625 -18.87125 8.40375 -18 8 C-17.67 7.01 -17.34 6.02 -17 5 C-15.4765625 3.6484375 -15.4765625 3.6484375 -13.625 2.375 C-13.01914063 1.94960938 -12.41328125 1.52421875 -11.7890625 1.0859375 C-7.83645638 -1.31324264 -4.27118501 -1.57485034 0 0 Z M-84.78125 186.74609375 C-94.72419898 198.94649799 -95.15576536 212.87313274 -95.11352539 227.87329102 C-95.11324282 229.25391132 -95.11340262 230.63453176 -95.1139679 232.01515198 C-95.11425313 235.73765418 -95.10840082 239.46012372 -95.10139394 243.18261838 C-95.09511467 247.08235077 -95.094553 250.98208402 -95.09336853 254.88182068 C-95.09026865 262.25513251 -95.08207345 269.6284294 -95.07201904 277.00173467 C-95.06081608 285.40081416 -95.05533694 293.79989439 -95.05032361 302.1989795 C-95.03988964 319.46599495 -95.02231634 336.73299589 -95 354 C-91.46281174 355.91322604 -88.9859711 356.27006677 -84.9375 356.25 C-83.89464844 356.25515625 -82.85179687 356.2603125 -81.77734375 356.265625 C-78.78871015 356.20072577 -78.78871015 356.20072577 -76 354 C-76 353.34 -76 352.68 -76 352 C-75.40703125 351.75636719 -74.8140625 351.51273438 -74.203125 351.26171875 C-71.60431846 349.77339515 -70.47625334 348.2468524 -68.75 345.8125 C-66.39879205 342.66418743 -64.09223829 340.06248051 -61.0625 337.5625 C-57.03660127 334.22452183 -53.9936453 330.40476771 -50.859375 326.234375 C-46.70779752 321.24550458 -46.70779752 321.24550458 -43.10406303 320.72744942 C-40.63946502 320.61782152 -38.19135609 320.60957853 -35.72436523 320.63110352 C-34.78560043 320.62733704 -33.84683563 320.62357056 -32.87962341 320.61968994 C-30.84112483 320.61325544 -28.80259626 320.6135894 -26.76409721 320.61987495 C-23.53027738 320.62898603 -20.29703737 320.61875847 -17.06324768 320.60325623 C-7.86891605 320.56317191 1.32537092 320.56194551 10.51977539 320.56420898 C16.14607132 320.56426029 21.77205698 320.54498467 27.39826775 320.51487541 C30.57061666 320.50410416 33.74235911 320.51615267 36.91468811 320.52870178 C50.8973536 320.55532962 50.8973536 320.55532962 64 316 C64.66 315.67 65.32 315.34 66 315 C66 314.34 66 313.68 66 313 C66.70125 312.835 67.4025 312.67 68.125 312.5 C73.13842869 309.88429807 75.97511808 305.14293492 78.375 300.125 C79.09405544 298.04937911 79.09405544 298.04937911 79 296 C79.66 295.67 80.32 295.34 81 295 C84.0395807 286.69136641 83.29186939 277.19356657 83.265625 268.4765625 C83.26697574 266.8829238 83.26891966 265.2892855 83.27142334 263.69564819 C83.27435709 260.36899867 83.27013481 257.04245719 83.26074219 253.71582031 C83.24936739 249.48429536 83.25590577 245.25302475 83.26788712 241.02150917 C83.2751692 237.73379659 83.27278858 234.4461427 83.26763153 231.15842819 C83.26631155 229.59975529 83.26788377 228.04107679 83.27259064 226.48241043 C83.54462549 208.58417916 83.54462549 208.58417916 76.6875 192.5 C76.30916016 191.91992188 75.93082031 191.33984375 75.54101562 190.7421875 C73.10561926 187.13236142 70.51180818 184.54592135 67 182 C66.38275842 181.50256601 65.76551683 181.00513203 65.12957096 180.49262428 C58.20380475 175.63832874 49.62980781 175.56341111 41.48266602 175.61181641 C40.37721436 175.60655945 39.2717627 175.60130249 38.1328125 175.59588623 C34.50636341 175.58276511 30.88035922 175.59139723 27.25390625 175.6015625 C24.71622128 175.59953936 22.17853687 175.59662593 19.64085388 175.59286499 C14.33269151 175.58845217 9.02468603 175.59454873 3.71655273 175.60888672 C-2.39334815 175.62520131 -8.50294844 175.61992602 -14.61284202 175.6034075 C-20.52352133 175.58807579 -26.43410846 175.58979716 -32.34480476 175.5985527 C-34.84490057 175.60054534 -37.34500411 175.59812856 -39.84509087 175.59111404 C-43.34802038 175.58344216 -46.85038381 175.59518484 -50.35327148 175.61181641 C-51.88338615 175.60270737 -51.88338615 175.60270737 -53.44441223 175.59341431 C-64.95260778 175.69395497 -76.34571754 178.47705206 -84.78125 186.74609375 Z " fill="#FDFDFD" transform="translate(214,1)"/>
<path d="M0 0 C1.80213959 -0.01485695 1.80213959 -0.01485695 3.64068604 -0.03001404 C5.60531548 -0.02326157 5.60531548 -0.02326157 7.6096344 -0.01637268 C9.00949142 -0.02207789 10.40934379 -0.02904273 11.80918884 -0.03717041 C15.60469631 -0.05510072 19.39997258 -0.05393372 23.19550967 -0.04822803 C26.36649076 -0.04513591 29.53742745 -0.05122889 32.70840222 -0.05726677 C40.19032843 -0.07131002 47.67214046 -0.06975247 55.15406799 -0.05836487 C62.86756168 -0.04688411 70.58070767 -0.06095887 78.29415554 -0.08776134 C84.921921 -0.10992731 91.54957739 -0.11655371 98.17737728 -0.11068493 C102.13356895 -0.10731623 106.08953774 -0.10972442 110.04569817 -0.12693596 C113.76653823 -0.14241746 117.48686374 -0.13843676 121.20768356 -0.11963081 C123.21990511 -0.11419534 125.23214983 -0.12844991 127.24432373 -0.14332581 C138.2159579 -0.05372905 138.2159579 -0.05372905 143.01026917 4.38768005 C145.67677811 7.21775266 146.40982092 9.02140334 146.33448792 12.8915863 C146.14642339 18.83246851 145.0521268 24.52324478 143.82276917 30.32518005 C143.59718323 31.41548523 143.37159729 32.50579041 143.13917542 33.62913513 C139.37393806 51.49701672 134.72127247 68.77454286 127.01026917 85.38768005 C126.36306674 86.86624819 125.71726042 88.34542813 125.07276917 89.82518005 C122.88343069 94.76209469 120.46111812 99.57638231 118.01026917 104.38768005 C117.35026917 104.38768005 116.69026917 104.38768005 116.01026917 104.38768005 C115.86589417 105.17143005 115.72151917 105.95518005 115.57276917 106.76268005 C115.01026917 109.38768005 115.01026917 109.38768005 114.01026917 111.38768005 C113.35026917 111.38768005 112.69026917 111.38768005 112.01026917 111.38768005 C111.78339417 112.02705505 111.55651917 112.66643005 111.32276917 113.32518005 C105.94847197 125.86520685 96.98811671 136.24650578 88.01026917 146.38768005 C86.86429079 147.70005342 85.7184658 149.01256073 84.57276917 150.32518005 C83.98882385 150.98646912 83.40487854 151.64775818 82.80323792 152.3290863 C81.57751475 153.73639808 80.37253403 155.16197518 79.18605042 156.6025238 C76.03920153 160.37737724 73.86889383 162.9586728 69.01026917 164.38768005 C68.68026917 165.04768005 68.35026917 165.70768005 68.01026917 166.38768005 C65.37026917 166.05768005 62.73026917 165.72768005 60.01026917 165.38768005 C60.01026917 164.72768005 60.01026917 164.06768005 60.01026917 163.38768005 C58.69026917 163.05768005 57.37026917 162.72768005 56.01026917 162.38768005 C56.01026917 161.72768005 56.01026917 161.06768005 56.01026917 160.38768005 C55.35026917 160.38768005 54.69026917 160.38768005 54.01026917 160.38768005 C52.50245667 158.92674255 52.50245667 158.92674255 50.88526917 157.01268005 C50.34644104 156.38619568 49.80761292 155.7597113 49.25245667 155.11424255 C48.01026917 153.38768005 48.01026917 153.38768005 48.01026917 151.38768005 C47.35026917 151.38768005 46.69026917 151.38768005 46.01026917 151.38768005 C41.42480866 146.94082289 37.52082079 141.70669767 34.01026917 136.38768005 C34.01026917 135.72768005 34.01026917 135.06768005 34.01026917 134.38768005 C33.35026917 134.38768005 32.69026917 134.38768005 32.01026917 134.38768005 C30.29105656 132.25513759 28.70043831 130.12947949 27.13526917 127.88768005 C26.68490295 127.24927185 26.23453674 126.61086365 25.77052307 125.95310974 C18.01026917 114.79261324 18.01026917 114.79261324 18.01026917 110.38768005 C17.02026917 109.89268005 17.02026917 109.89268005 16.01026917 109.38768005 C14.95339667 107.75648469 13.96481929 106.08078721 13.01026917 104.38768005 C12.40827698 103.33451599 11.80628479 102.28135193 11.18605042 101.1962738 C10.2637262 99.5275824 10.2637262 99.5275824 9.32276917 97.82518005 C8.70015198 96.71014099 8.07753479 95.59510193 7.43605042 94.4462738 C6.01026917 91.38768005 6.01026917 91.38768005 6.01026917 87.38768005 C5.35026917 87.05768005 4.69026917 86.72768005 4.01026917 86.38768005 C2.3818828 83.19012138 1.2495002 79.75130716 0.01026917 76.38768005 C-0.22240662 75.75668396 -0.4550824 75.12568787 -0.69480896 74.47557068 C-18.97204304 24.60687717 -18.97204304 24.60687717 -14.32566833 8.0165863 C-11.22572805 1.95532094 -6.49296241 0.01513941 0 0 Z " fill="#FDFCFC" transform="translate(142.98973083496094,495.61231994628906)"/>
<path d="M0 0 C1.32 0.66 2.64 1.32 4 2 C4 2.99 4 3.98 4 5 C3.113125 5.4125 2.22625 5.825 1.3125 6.25 C-4.34287702 9.23774635 -8.48834222 13.10073767 -12.4375 18.0625 C-15 21 -15 21 -16.86328125 21.86328125 C-19.81319992 23.43261641 -21.56241576 25.6157122 -23.75 28.125 C-24.54921875 29.03507812 -25.3484375 29.94515625 -26.171875 30.8828125 C-27.07679688 31.93082031 -27.07679688 31.93082031 -28 33 C-28 27.63785733 -23.43895654 23.86882611 -20 20 C-18.98762433 19.07119307 -17.95033814 18.16762262 -16.875 17.3125 C-13.94574437 14.9563596 -11.80068978 12.49183924 -9.4921875 9.55078125 C-7.81253207 7.80517076 -6.16091824 7.05378111 -4 6 C-2.73195434 3.9664052 -2.73195434 3.9664052 -2 2 C-1.34 2 -0.68 2 0 2 C0 1.34 0 0.68 0 0 Z " fill="#D9CBCE" transform="translate(175,26)"/>
<path d="M0 0 C0.33 0 0.66 0 1 0 C1.06058594 0.74765625 1.12117187 1.4953125 1.18359375 2.265625 C1.26738281 3.25046875 1.35117187 4.2353125 1.4375 5.25 C1.51871094 6.22453125 1.59992187 7.1990625 1.68359375 8.203125 C1.91396456 10.87904895 1.91396456 10.87904895 2.52734375 12.93164062 C3.30872783 16.3510032 2.8289719 19.78280243 2.5625 23.25 C2.51029297 23.99507813 2.45808594 24.74015625 2.40429688 25.5078125 C2.2751783 27.33894861 2.13834886 29.16953813 2 31 C1.67 31 1.34 31 1 31 C-0.1555538 20.66192051 -0.09776087 10.38437692 0 0 Z " fill="#DAC5C6" transform="translate(1,476)"/>
<path d="M0 0 C0.66 0.33 1.32 0.66 2 1 C-0.11953017 3.00609052 -2.24513441 5.00493603 -4.375 7 C-5.27992188 7.85851562 -5.27992188 7.85851562 -6.203125 8.734375 C-7.07324219 9.54648437 -7.07324219 9.54648437 -7.9609375 10.375 C-8.49509277 10.87773437 -9.02924805 11.38046875 -9.57958984 11.8984375 C-11 13 -11 13 -13 13 C-13.33 13.99 -13.66 14.98 -14 16 C-14.66 15.67 -15.32 15.34 -16 15 C-14.625 13 -14.625 13 -13 11 C-12.34 11 -11.68 11 -11 11 C-10.67 10.01 -10.34 9.02 -10 8 C-5.54285714 4 -5.54285714 4 -3 4 C-3 3.34 -3 2.68 -3 2 C-2.01 1.34 -1.02 0.68 0 0 Z " fill="#B8A1A7" transform="translate(194,9)"/>
<path d="M0 0 C0.33 0.66 0.66 1.32 1 2 C0.030625 1.71125 -0.93875 1.4225 -1.9375 1.125 C-5.74785184 0.53521031 -7.62770339 1.72874046 -10.75 3.875 C-11.48734375 4.42929688 -12.2246875 4.98359375 -12.984375 5.5546875 C-15 7 -15 7 -18 8 C-16.9033819 4.7101457 -16.36014615 4.25613427 -13.625 2.375 C-13.01914063 1.94960938 -12.41328125 1.52421875 -11.7890625 1.0859375 C-7.65310348 -1.42453544 -4.60706199 -0.93847559 0 0 Z " fill="#B39BA0" transform="translate(214,1)"/>
<path d="M0 0 C3 1 3 1 5 2 C5.66 1.34 6.32 0.68 7 0 C7.125 2.375 7.125 2.375 7 5 C6.34 5.66 5.68 6.32 5 7 C5.33 7.99 5.66 8.98 6 10 C5.34 10 4.68 10 4 10 C1 4.25 1 4.25 1 2 C0.34 1.67 -0.32 1.34 -1 1 C-0.67 0.67 -0.34 0.34 0 0 Z " fill="#E3D7D8" transform="translate(160,604)"/>
<path d="M0 0 C0.99 0.33 1.98 0.66 3 1 C3 2.32 3 3.64 3 5 C2.34 5 1.68 5 1 5 C0.34 6.32 -0.32 7.64 -1 9 C-1.99 9 -2.98 9 -4 9 C-3.34 8.01 -2.68 7.02 -2 6 C-2.33 5.34 -2.66 4.68 -3 4 C-2.01 2.68 -1.02 1.36 0 0 Z " fill="#ECE2E2" transform="translate(109,459)"/>
<path d="M0 0 C0 3.60573896 -0.81707462 4.41336566 -3 7.1875 C-3.556875 7.90292969 -4.11375 8.61835937 -4.6875 9.35546875 C-5.120625 9.89816406 -5.55375 10.44085937 -6 11 C-6.5534764 8.92446352 -7 7.15634036 -7 5 C-6.34 5 -5.68 5 -5 5 C-4.67 4.01 -4.34 3.02 -4 2 C-1.9375 0.8125 -1.9375 0.8125 0 0 Z " fill="#DECACF" transform="translate(247,619)"/>
<path d="M0 0 C0.66 0 1.32 0 2 0 C2.391875 0.45375 2.78375 0.9075 3.1875 1.375 C5.80138604 3.71848404 8.64083629 4.17605418 12 5 C12 4.34 12 3.68 12 3 C12.99 3.33 13.98 3.66 15 4 C14.34 4 13.68 4 13 4 C13 4.66 13 5.32 13 6 C9.27811664 6.97477898 7.35751532 7.12816587 3.6875 5.8125 C1 4 1 4 0.125 1.8125 C0.08375 1.214375 0.0425 0.61625 0 0 Z " fill="#E5CFD2" transform="translate(6,538)"/>
<path d="M0 0 C0.33 0.66 0.66 1.32 1 2 C0.34 2 -0.32 2 -1 2 C-1.165 2.680625 -1.33 3.36125 -1.5 4.0625 C-3.71301627 8.39632353 -7.25519489 10.97802936 -11 14 C-11 11 -11 11 -8.75 8.625 C-7.8425 7.75875 -6.935 6.8925 -6 6 C-5.278125 5.0925 -4.55625 4.185 -3.8125 3.25 C-2 1 -2 1 0 0 Z " fill="#DECACC" transform="translate(45,350)"/>
<path d="M0 0 C0.33 0.66 0.66 1.32 1 2 C-3.18461538 8.64615385 -3.18461538 8.64615385 -7.3125 10.4375 C-8.6428125 10.7159375 -8.6428125 10.7159375 -10 11 C-8.55218207 7.55571735 -6.72305391 5.63869038 -3.875 3.25 C-3.15054688 2.63640625 -2.42609375 2.0228125 -1.6796875 1.390625 C-0.84824219 0.70226562 -0.84824219 0.70226562 0 0 Z " fill="#DECDD0" transform="translate(66,331)"/>
<path d="M0 0 C3.66415876 2.06312314 6.70548128 4.35872176 9.8125 7.1875 C10.60269531 7.90292969 11.39289063 8.61835938 12.20703125 9.35546875 C12.79871094 9.89816406 13.39039063 10.44085938 14 11 C9.85326976 11 8.47050281 9.24222063 5.3125 6.625 C4.31863281 5.81289063 3.32476562 5.00078125 2.30078125 4.1640625 C1.54152344 3.44992187 0.78226562 2.73578125 0 2 C0 1.34 0 0.68 0 0 Z " fill="#B3989F" transform="translate(348,501)"/>
<path d="M0 0 C3.465 1.485 3.465 1.485 7 3 C6.34 4.32 5.68 5.64 5 7 C4.01 7 3.02 7 2 7 C0.5393715 4.35261084 0 3.10551666 0 0 Z " fill="#E9E0E2" transform="translate(149,584)"/>
<path d="M0 0 C0.99 1.32 1.98 2.64 3 4 C1.35 4.66 -0.3 5.32 -2 6 C-2 6.99 -2 7.98 -2 9 C-3.32 8.34 -4.64 7.68 -6 7 C-4.02 4.69 -2.04 2.38 0 0 Z " fill="#EEE3E4" transform="translate(163,327)"/>
<path d="M0 0 C0.66 0 1.32 0 2 0 C1.67 3.63 1.34 7.26 1 11 C-0.65 11.66 -2.3 12.32 -4 13 C-2.68 8.71 -1.36 4.42 0 0 Z " fill="#DFD1D3" transform="translate(89,148)"/>
<path d="M0 0 C4 4.75 4 4.75 4 7 C3.34 7 2.68 7 2 7 C1.67 7.66 1.34 8.32 1 9 C0.01 8.01 -0.98 7.02 -2 6 C-1.34 4.02 -0.68 2.04 0 0 Z " fill="#EFE5E5" transform="translate(311,114)"/>
<path d="M0 0 C0.66 0.33 1.32 0.66 2 1 C0.75965588 2.32162881 -0.49268626 3.63200453 -1.75 4.9375 C-2.44609375 5.66839844 -3.1421875 6.39929688 -3.859375 7.15234375 C-6.00599725 9.00517646 -7.23532932 9.60771565 -10 10 C-6.66666667 6.66666667 -3.33333333 3.33333333 0 0 Z " fill="#B59699" transform="translate(99,473)"/>
<path d="M0 0 C0.66 1.32 1.32 2.64 2 4 C1.34 4 0.68 4 0 4 C-0.268125 4.639375 -0.53625 5.27875 -0.8125 5.9375 C-2 8 -2 8 -5 9 C-3.50163895 5.88801935 -1.80066242 2.9465385 0 0 Z " fill="#E9DCDD" transform="translate(292,301)"/>
<path d="M0 0 C0.99 0 1.98 0 3 0 C2.25 5.75 2.25 5.75 0 8 C-0.38063221 5.6739143 -0.71269945 3.33944736 -1 1 C-0.67 0.67 -0.34 0.34 0 0 Z " fill="#E9D8D9" transform="translate(269,573)"/>
<path d="M0 0 C0.66 0 1.32 0 2 0 C2.33 0.99 2.66 1.98 3 3 C0.03 5.475 0.03 5.475 -3 8 C-1.125 2.25 -1.125 2.25 0 0 Z " fill="#E4D3D5" transform="translate(20,379)"/>
<path d="M0 0 C0.99 0.33 1.98 0.66 3 1 C3.33 2.32 3.66 3.64 4 5 C1.36 4.34 -1.28 3.68 -4 3 C-2.1875 1.4375 -2.1875 1.4375 0 0 Z " fill="#F5EBEA" transform="translate(278,316)"/>
</svg>
